<svg width="51" height="66" viewBox="0 0 51 66" fill="none" xmlns="http://www.w3.org/2000/svg">
<circle cx="25.5" cy="25.3164" r="25.3164" fill="#1692AD"/>
<rect x="15.2324" y="24.4312" width="25.4934" height="35.4076" rx="2.8326" transform="rotate(2.5 15.2324 24.4312)" fill="#EEEEEE"/>
<rect x="15.5707" y="24.8003" width="24.7853" height="34.6994" rx="2.47853" transform="rotate(2.5 15.5707 24.8003)" stroke="#1692AD" stroke-opacity="0.56" stroke-width="0.708151"/>
<rect x="1.23047" y="23.0298" width="25.4934" height="35.4076" rx="2.8326" transform="rotate(-7.5 1.23047 23.0298)" fill="#FAFAFA"/>
<rect x="0.833206" y="22.725" width="26.2016" height="36.1157" rx="3.18668" transform="rotate(-7.5 0.833206 22.725)" stroke="#1692AD" stroke-opacity="0.56" stroke-width="0.708151"/>
<path d="M1.6002 25.8382C1.396 24.2871 2.48782 22.8643 4.03884 22.6601L23.6974 20.072C25.2485 19.8678 26.6713 20.9596 26.8755 22.5106L27.5688 27.7763L2.29344 31.1039L1.6002 25.8382Z" fill="#EEEEEE"/>
<rect x="32.002" y="20.7644" width="1.06223" height="3.54076" rx="0.531113" transform="rotate(82.5 32.002 20.7644)" fill="#1692AD" fill-opacity="0.56"/>
<rect x="22.3047" y="14.8984" width="1.06223" height="3.54076" rx="0.531113" transform="rotate(-7.5 22.3047 14.8984)" fill="#1692AD" fill-opacity="0.56"/>
<rect x="28.5254" y="15.865" width="1.06223" height="3.54076" rx="0.531113" transform="rotate(37.5 28.5254 15.865)" fill="#1692AD" fill-opacity="0.56"/>
<rect x="4.93555" y="32.1846" width="20.5364" height="1.4163" rx="0.708151" transform="rotate(-7.5 4.93555 32.1846)" fill="#DCDCDC"/>
<rect x="5.86133" y="39.2056" width="20.5364" height="1.4163" rx="0.708151" transform="rotate(-7.5 5.86133 39.2056)" fill="#DCDCDC"/>
<rect x="6.7832" y="46.2266" width="20.5364" height="1.4163" rx="0.708151" transform="rotate(-7.5 6.7832 46.2266)" fill="#DCDCDC"/>
<rect x="5.30664" y="34.9932" width="7.43559" height="1.4163" rx="0.708151" transform="rotate(-7.5 5.30664 34.9932)" fill="#EEEEEE"/>
<rect x="6.23047" y="42.0134" width="7.43559" height="1.4163" rx="0.708151" transform="rotate(-7.5 6.23047 42.0134)" fill="#EEEEEE"/>
<rect x="7.15234" y="49.0344" width="7.43559" height="1.4163" rx="0.708151" transform="rotate(-7.5 7.15234 49.0344)" fill="#EEEEEE"/>
</svg>
